<?xml version="1.0" encoding="utf-8"?>
<!-- Generator: Adobe Illustrator 26.0.0, SVG Export Plug-In . SVG Version: 6.00 Build 0)  -->
<svg version="1.1" id="Layer_1" xmlns="http://www.w3.org/2000/svg" xmlns:xlink="http://www.w3.org/1999/xlink" x="0px" y="0px"
	 viewBox="0 0 1366 768" style="enable-background:new 0 0 1366 768;" xml:space="preserve">
<style type="text/css">
	.st0{fill:#61CEFF;}
</style>
<g>
	<g>
	</g>
</g>
<g>
	<g>
	</g>
</g>
<g>
	<ellipse class="st0" cx="481" cy="311" rx="132.5" ry="124.5"/>
	<path d="M481,187c35.27,0,68.43,12.91,93.36,36.34C599.28,246.76,613,277.89,613,311s-13.72,64.24-38.64,87.66
		C549.43,422.09,516.27,435,481,435s-68.43-12.91-93.36-36.34C362.72,375.24,349,344.11,349,311s13.72-64.24,38.64-87.66
		C412.57,199.91,445.73,187,481,187 M481,186c-73.45,0-133,55.96-133,125s59.55,125,133,125s133-55.96,133-125S554.45,186,481,186
		L481,186z"/>
</g>
</svg>
